M48
; DRILL file {KiCad 7.0.9} date Mon Dec 25 16:10:36 2023
; FORMAT={-:-/ absolute / inch / decimal}
; #@! TF.CreationDate,2023-12-25T16:10:36+05:30
; #@! TF.GenerationSoftware,Kicad,Pcbnew,7.0.9
; #@! TF.FileFunction,Plated,1,2,PTH
FMAT,2
INCH
; #@! TA.AperFunction,Plated,PTH,ViaDrill
T1C0.0157
; #@! TA.AperFunction,Plated,PTH,ComponentDrill
T2C0.0157
; #@! TA.AperFunction,Plated,PTH,ViaDrill
T3C0.0197
; #@! TA.AperFunction,Plated,PTH,ViaDrill
T4C0.0236
; #@! TA.AperFunction,Plated,PTH,ComponentDrill
T5C0.0236
; #@! TA.AperFunction,Plated,PTH,ComponentDrill
T6C0.0280
; #@! TA.AperFunction,Plated,PTH,ViaDrill
T7C0.0315
; #@! TA.AperFunction,Plated,PTH,ComponentDrill
T8C0.0315
; #@! TA.AperFunction,Plated,PTH,ComponentDrill
T9C0.0374
; #@! TA.AperFunction,Plated,PTH,ComponentDrill
T10C0.0394
; #@! TA.AperFunction,Plated,PTH,ComponentDrill
T11C0.1260
%
G90
G05
T1
X1.3881Y-5.22
X1.3981Y-5.807
X1.4181Y-4.935
X1.4221Y-5.593
X1.4381Y-5.523
X1.4969Y-5.9002
X1.4981Y-5.149
X1.5142Y-5.5051
X1.5231Y-5.205
X1.5418Y-4.655
X1.58Y-5.5
X1.5914Y-5.9002
X1.5938Y-4.4829
X1.6174Y-4.97
X1.6201Y-6.053
X1.6358Y-5.4258
X1.66Y-5.47
X1.6661Y-4.959
X1.6781Y-5.9002
X1.6981Y-4.89
X1.7279Y-5.0749
X1.7281Y-4.821
X1.7521Y-5.381
X1.7569Y-5.0339
X1.7661Y-2.847
X1.7755Y-5.7979
X1.7825Y-5.0083
X1.8031Y-4.795
X1.8031Y-5.5719
X1.8121Y-4.971
X1.8277Y-5.1758
X1.8461Y-5.139
X1.8581Y-4.925
X1.8746Y-5.3173
X1.8841Y-1.721
X1.8885Y-4.9605
X1.8931Y-5.17
X1.8931Y-5.4007
X1.9031Y-4.8
X1.9221Y-4.3491
X1.9281Y-4.829
X1.93Y-4.9947
X1.9379Y-5.1
X1.9381Y-5.62
X1.9401Y-5.31
X1.9615Y-5.7979
X1.9666Y-5.0186
X1.9694Y-6.036
X1.985Y-5.75
X1.9919Y-5.3049
X1.9962Y-5.2638
X1.9981Y-4.81
X2.03Y-5.41
X2.0301Y-5.251
X2.0331Y-4.075
X2.0373Y-5.2114
X2.0491Y-4.9361
X2.0921Y-5.157
X2.1032Y-4.9554
X2.1041Y-5.079
X2.1161Y-5.915
X2.1269Y-4.0892
X2.1501Y-6.003
X2.1527Y-5.2991
X2.1561Y-5.201
X2.1584Y-5.916
X2.1961Y-5.317
X2.2331Y-4.085
X2.2541Y-5.483
X2.2561Y-5.123
X2.2584Y-4.775
X2.2781Y-5.715
X2.3101Y-5.001
X2.3121Y-5.669
X2.3301Y-1.947
X2.3821Y-6.399
X2.4081Y-3.955
X2.5131Y-4.81
X2.5431Y-4.85
X2.5631Y-4.7
X2.6431Y-4.55
X2.6481Y-5.065
X2.6781Y-4.585
X2.69Y-1.73
X2.7081Y-4.62
X2.7281Y-5.565
X2.7281Y-5.75
X2.8181Y-5.565
X2.8181Y-5.75
X2.8531Y-4.355
X2.8831Y-4.915
X2.89Y-5.242
X2.8944Y-5.07
X2.9131Y-4.575
X2.9214Y-5.04
X2.9231Y-5.285
X2.9581Y-5.001
X2.9811Y-5.157
X2.9858Y-4.975
X3.0181Y-4.83
X3.0181Y-5.325
X3.0181Y-5.75
X3.0281Y-4.95
X3.0381Y-5.415
X3.0431Y-5.465
X3.0817Y-5.1313
X3.1073Y-5.1058
X3.1135Y-5.0288
X3.1181Y-4.575
X3.1581Y-2.38
X3.1731Y-5.8857
X3.1817Y-2.6876
X3.185Y-4.355
X3.2211Y-2.6879
X3.2281Y-5.75
X3.2607Y-2.6876
X3.2631Y-5.125
X3.2961Y-1.399
X3.3001Y-2.6876
X3.3081Y-5.1
X3.3181Y-5.565
X3.3181Y-5.75
X3.3316Y-1.1916
X3.3341Y-1.451
X3.3643Y-1.1698
X3.3946Y-2.6876
X3.4031Y-1.515
X3.4261Y-1.3097
X3.4331Y-1.541
X3.4721Y-5.019
X3.4741Y-4.205
X3.4969Y-1.3333
X3.5363Y-2.6876
X3.57Y-1.17
X3.6308Y-2.6876
X3.6581Y-5.21
X3.6681Y-1.25
X3.6859Y-2.6876
X3.7031Y-1.3097
X3.7321Y-4.623
X3.735Y-1.145
X3.7764Y-1.1404
X3.7981Y-5.45
X3.8081Y-5.525
X3.81Y-1.48
X3.81Y-1.54
X3.82Y-1.27
X3.8231Y-5.245
X3.826Y-1.32
X3.8481Y-5.03
X3.8513Y-2.6876
X3.8541Y-5.833
X3.8701Y-5.323
X3.8831Y-4.5277
X3.8906Y-2.6876
X3.9081Y-5.527
X3.9109Y-4.9994
X3.9282Y-5.2236
X3.93Y-2.6876
X3.96Y-1.38
X3.9731Y-5.54
X3.9901Y-4.795
X3.9981Y-5.305
X4.0361Y-5.345
X4.06Y-1.25
X4.06Y-1.29
X4.0681Y-5.045
X4.0731Y-5.575
X4.0803Y-5.355
X4.0825Y-4.8079
X4.1171Y-5.1939
X4.1203Y-5.45
X4.1203Y-5.505
X4.1531Y-4.5924
X4.154Y-5.3124
X4.1831Y-5.0041
X4.2031Y-4.825
X4.214Y-5.03
X4.2453Y-5.366
X4.2531Y-5.05
X4.2636Y-5.5608
X4.2881Y-5.5
X4.2902Y-4.8622
X4.2931Y-4.92
X4.2939Y-5.095
X4.2997Y-5.3244
X4.3103Y-5.4407
X4.3261Y-5.283
X4.3381Y-4.955
X4.3501Y-5.915
X4.3541Y-4.181
X4.3701Y-5.253
X4.3803Y-4.955
X4.3903Y-5.0
X4.4061Y-5.343
X4.4101Y-5.073
X4.4131Y-5.45
X4.4381Y-4.82
X4.4381Y-5.8494
X4.445Y-4.8556
X4.4827Y-4.853
X4.49Y-1.72
X4.5201Y-5.195
X4.5231Y-5.1
X4.53Y-1.72
X4.5461Y-4.789
X4.576Y-3.04
X4.5921Y-4.669
X4.6182Y-3.0403
X4.6241Y-5.505
X4.6501Y-6.715
X4.6521Y-5.023
X4.6541Y-5.891
X4.6544Y-3.0385
X4.6721Y-6.515
X4.6841Y-5.385
X4.6881Y-3.095
X4.6905Y-3.0364
X4.7501Y-3.025
X4.8179Y-4.5749
X4.8341Y-4.729
X4.8341Y-5.277
X4.8392Y-6.54
X4.8431Y-6.35
X4.8591Y-4.664
X4.8821Y-1.145
X4.8837Y-4.6027
X4.8841Y-4.897
X4.8884Y-4.2504
X4.8981Y-6.263
X4.91Y-1.44
X4.9101Y-5.609
X4.9371Y-5.176
X4.9401Y-4.357
X4.962Y-5.565
X5.005Y-4.8252
X5.0201Y-4.609
X5.0261Y-4.221
X5.0341Y-5.0905
X5.0381Y-5.565
X5.0381Y-6.34
X5.0392Y-6.54
X5.1077Y-4.8231
X5.1099Y-5.5769
X5.1148Y-5.3165
X5.1301Y-6.341
X5.1361Y-6.265
X5.1461Y-1.585
X5.1683Y-5.3086
X5.2092Y-5.145
X5.2131Y-4.96
X5.2161Y-4.649
X5.2281Y-4.751
X5.2331Y-5.86
X5.2381Y-5.2
X5.2481Y-4.3688
X5.2617Y-4.9676
X5.2821Y-5.547
X5.2881Y-6.35
X5.2892Y-6.54
X5.3063Y-4.9821
X5.3081Y-4.91
X5.3301Y-1.825
X5.3361Y-5.163
X5.3374Y-4.8557
X5.3392Y-5.04
X5.3392Y-5.231
X5.3421Y-2.059
X5.3481Y-1.653
X5.37Y-1.45
X5.3801Y-4.889
X5.3967Y-5.1361
X5.4036Y-4.9655
X5.4061Y-5.585
X5.4168Y-5.0067
X5.4281Y-5.159
X5.4413Y-1.816
X5.45Y-0.98
X5.45Y-1.16
X5.45Y-1.24
X5.4792Y-6.54
X5.48Y-1.79
X5.4881Y-1.751
X5.4881Y-6.355
X5.49Y-0.97
X5.52Y-1.5653
X5.5221Y-5.035
X5.5242Y-5.1201
X5.5305Y-1.857
X5.5424Y-4.8312
X5.55Y-0.97
X5.5531Y-5.07
X5.58Y-1.16
X5.58Y-1.24
X5.58Y-1.84
X5.59Y-0.99
X5.5961Y-6.515
X5.598Y-1.534
X5.604Y-1.58
X5.6092Y-4.915
X5.62Y-0.87
X5.62Y-1.46
X5.6281Y-1.781
X5.6281Y-1.725
X5.6458Y-1.5652
X5.658Y-1.865
X5.6832Y-1.56
X5.7181Y-2.01
X5.7361Y-1.729
X5.789Y-2.021
X5.8021Y-1.653
X5.804Y-1.932
X5.8161Y-1.545
X5.8431Y-1.835
X5.8481Y-1.333
X5.8806Y-4.8882
X5.8831Y-4.785
X5.9156Y-1.46
X5.9631Y-1.4
X5.9881Y-1.523
X5.9884Y-1.4623
X6.03Y-1.56
X6.03Y-1.92
X6.0881Y-1.987
X6.1019Y-1.6629
X6.1081Y-1.62
X6.14Y-1.76
X6.16Y-1.14
X6.19Y-1.83
X6.29Y-1.87
T2
X3.0185Y-5.0655
T3
X1.1811Y-1.1417
X1.1811Y-1.3386
X1.1811Y-1.5354
X1.1811Y-1.7323
X1.1811Y-1.9291
X1.1811Y-2.126
X1.1811Y-2.3228
X1.1811Y-2.5197
X1.1811Y-2.7165
X1.1811Y-2.9134
X1.1811Y-3.1102
X1.1811Y-3.3071
X1.1811Y-3.5039
X1.1811Y-3.7008
X1.1811Y-3.8976
X1.1811Y-4.0945
X1.1811Y-4.2913
X1.1811Y-4.4882
X1.1811Y-4.685
X1.1811Y-4.8819
X1.1811Y-5.0787
X1.1811Y-5.2756
X1.1811Y-5.4724
X1.1811Y-5.6693
X1.1811Y-5.8661
X1.1811Y-6.063
X1.1811Y-6.2598
X1.1811Y-6.4567
X1.1811Y-6.6535
X1.1811Y-6.8504
X1.378Y-0.9055
X1.5748Y-0.9055
X1.5748Y-7.0472
X1.7717Y-0.9055
X1.7717Y-7.0472
X1.9685Y-0.9055
X1.9685Y-7.0472
X2.1654Y-0.9055
X2.1654Y-7.0472
X2.3622Y-0.9055
X2.3622Y-7.0472
X2.5591Y-0.9055
X2.5591Y-7.0472
X2.7559Y-0.9055
X2.7559Y-7.0472
X2.9528Y-0.9055
X2.9528Y-7.0472
X3.1496Y-0.9055
X3.1496Y-7.0472
X3.3465Y-0.9055
X3.3465Y-7.0472
X3.5433Y-0.9055
X3.5433Y-7.0472
X3.7402Y-0.9055
X3.7402Y-7.0472
X3.937Y-0.9055
X3.937Y-7.0472
X4.1339Y-0.9055
X4.1339Y-7.0472
X4.3307Y-0.9055
X4.3307Y-7.0472
X4.5276Y-0.9055
X4.5276Y-7.0472
X4.7244Y-0.9055
X4.7244Y-7.0472
X4.9213Y-0.9055
X4.9213Y-7.0472
X5.1181Y-0.9055
X5.1181Y-7.0472
X5.315Y-7.0472
X5.5118Y-7.0472
X5.7087Y-7.0472
X5.9055Y-0.9055
X5.9055Y-7.0472
X6.1024Y-0.9055
X6.1024Y-7.0472
X6.2992Y-0.9055
X6.2992Y-7.0472
X6.4961Y-1.1417
X6.4961Y-1.3386
X6.4961Y-1.5354
X6.4961Y-1.7323
X6.4961Y-1.9291
X6.4961Y-2.126
X6.4961Y-2.3228
X6.4961Y-2.5197
X6.4961Y-2.7559
X6.4961Y-2.9331
X6.4961Y-3.1102
X6.4961Y-3.3071
X6.4961Y-3.5039
X6.4961Y-3.7008
X6.4961Y-3.8976
X6.4961Y-4.0945
X6.4961Y-4.2913
X6.4961Y-4.4882
X6.4961Y-4.685
X6.4961Y-4.8819
X6.4961Y-5.0787
X6.4961Y-5.2756
X6.4961Y-5.4724
X6.4961Y-5.6693
X6.4961Y-5.8661
X6.4961Y-6.063
X6.4961Y-6.2598
X6.4961Y-6.4567
X6.4961Y-6.6535
X6.4961Y-6.8504
T4
X1.4981Y-5.055
X2.3981Y-6.2119
X2.4161Y-4.111
X3.4261Y-3.099
T6
X1.7702Y-5.8989
X1.7702Y-5.9489
X1.8202Y-5.8989
X1.8202Y-5.9489
X1.8702Y-5.8989
X1.8702Y-5.9489
X1.9202Y-5.8989
X1.9202Y-5.9489
X1.9702Y-5.8989
X1.9702Y-5.9489
T7
X1.378Y-7.0472
T8
X5.0942Y-5.705
X5.0942Y-5.805
X5.0942Y-5.905
X5.0942Y-6.005
X5.0942Y-6.105
X5.0942Y-6.205
X5.3942Y-5.705
X5.3942Y-5.805
X5.3942Y-5.905
X5.3942Y-6.005
X5.3942Y-6.105
X5.3942Y-6.205
T9
X1.4228Y-6.745
X1.5212Y-6.745
X1.6196Y-6.745
X1.7181Y-6.745
X1.8165Y-6.745
X1.9149Y-6.745
X2.0133Y-6.745
X2.1118Y-6.745
X2.2102Y-6.745
X2.3086Y-6.745
X2.5722Y-6.745
X2.6706Y-6.745
X2.7691Y-6.745
X2.8675Y-6.745
X2.9659Y-6.745
X3.0644Y-6.745
X3.1628Y-6.745
X3.2612Y-6.745
X3.3596Y-6.745
X3.4581Y-6.745
X3.7081Y-6.7457
X3.8065Y-6.7457
X3.9049Y-6.7457
X4.0033Y-6.7457
X4.1018Y-6.7457
X4.2002Y-6.7457
X4.2986Y-6.7457
X4.397Y-6.7457
X4.4955Y-6.7457
X4.5939Y-6.7457
X4.8481Y-6.7444
X4.9465Y-6.7444
X5.0449Y-6.7444
X5.3012Y-6.7444
X5.3996Y-6.7444
X5.4981Y-6.7444
T10
X1.4131Y-6.285
X1.4142Y-6.1391
X1.4279Y-3.675
X1.4281Y-3.53
X1.4281Y-3.82
X1.4281Y-3.965
X1.5019Y-3.2654
X1.5131Y-6.285
X1.5142Y-6.1391
X1.5279Y-3.675
X1.5281Y-3.53
X1.5281Y-3.82
X1.5281Y-3.965
X1.6131Y-6.285
X1.6142Y-6.1391
X1.7019Y-3.1654
X1.7131Y-6.285
X1.7142Y-6.1391
X1.8131Y-6.285
X1.8142Y-6.1391
X1.9131Y-6.285
X1.9142Y-6.1391
X2.0019Y-3.2654
X2.0131Y-6.285
X2.0142Y-6.1391
X2.1131Y-6.285
X2.1142Y-6.1391
X2.2131Y-6.285
X2.2142Y-6.1391
X2.3131Y-6.285
X2.3142Y-6.1391
X2.5682Y-6.285
X2.5731Y-6.14
X2.6682Y-6.285
X2.6731Y-6.14
X2.7682Y-6.285
X2.7731Y-6.14
X2.8682Y-6.285
X2.8731Y-6.14
X2.9682Y-6.285
X2.9731Y-6.14
X3.0682Y-6.285
X3.0731Y-6.14
X3.1682Y-6.285
X3.1731Y-6.14
X3.2682Y-6.285
X3.2731Y-6.14
X3.3682Y-6.285
X3.3731Y-6.14
X3.4682Y-6.285
X3.4731Y-6.14
X3.7053Y-6.1378
X3.7053Y-6.2828
X3.8053Y-6.1378
X3.8053Y-6.2828
X3.9053Y-6.1378
X3.9053Y-6.2828
X4.0053Y-6.1378
X4.0053Y-6.2828
X4.1053Y-6.1378
X4.1053Y-6.2828
X4.2053Y-6.1378
X4.2053Y-6.2828
X4.3053Y-6.1378
X4.3053Y-6.2828
X4.4053Y-6.1378
X4.4053Y-6.2828
X4.5053Y-6.1378
X4.5053Y-6.2828
X4.6053Y-6.1378
X4.6053Y-6.2828
X6.1831Y-2.935
X6.1831Y-3.035
X6.1831Y-3.135
X6.1831Y-3.235
X6.1831Y-3.335
X6.1831Y-3.435
X6.1831Y-3.535
X6.1831Y-3.635
X6.1831Y-3.735
X6.1831Y-3.835
X6.1831Y-3.935
X6.1831Y-4.035
X6.1831Y-4.135
X6.1831Y-4.235
X6.1831Y-4.335
X6.1831Y-4.435
X6.1831Y-4.535
X6.1831Y-4.635
X6.1831Y-4.735
X6.1831Y-4.835
X6.1831Y-4.935
X6.1831Y-5.035
X6.1831Y-5.135
X6.1831Y-5.235
X6.1831Y-5.335
X6.1831Y-5.435
X6.1831Y-5.535
X6.1831Y-5.635
X6.1831Y-5.735
X6.1831Y-5.835
X6.1831Y-5.935
X6.1831Y-6.035
X6.1831Y-6.135
X6.1831Y-6.235
X6.1831Y-6.335
X6.1831Y-6.435
X6.1831Y-6.535
X6.1831Y-6.635
X6.1831Y-6.735
X6.1831Y-6.835
X6.2831Y-2.935
X6.2831Y-3.035
X6.2831Y-3.135
X6.2831Y-3.235
X6.2831Y-3.335
X6.2831Y-3.435
X6.2831Y-3.535
X6.2831Y-3.635
X6.2831Y-3.735
X6.2831Y-3.835
X6.2831Y-3.935
X6.2831Y-4.035
X6.2831Y-4.135
X6.2831Y-4.235
X6.2831Y-4.335
X6.2831Y-4.435
X6.2831Y-4.535
X6.2831Y-4.635
X6.2831Y-4.735
X6.2831Y-4.835
X6.2831Y-4.935
X6.2831Y-5.035
X6.2831Y-5.135
X6.2831Y-5.235
X6.2831Y-5.335
X6.2831Y-5.435
X6.2831Y-5.535
X6.2831Y-5.635
X6.2831Y-5.735
X6.2831Y-5.835
X6.2831Y-5.935
X6.2831Y-6.035
X6.2831Y-6.135
X6.2831Y-6.235
X6.2831Y-6.335
X6.2831Y-6.435
X6.2831Y-6.535
X6.2831Y-6.635
X6.2831Y-6.735
X6.2831Y-6.835
T11
X1.1811Y-0.9055
X1.1811Y-7.0472
X6.4961Y-0.9055
X6.4961Y-7.0472
T5
G00X5.3499Y-0.87
M15
G01X5.3499Y-0.8385
M16
G05
G00X5.3499Y-1.0405
M15
G01X5.3499Y-0.9972
M16
G05
G00X5.6901Y-0.87
M15
G01X5.6901Y-0.8385
M16
G05
G00X5.6901Y-1.0405
M15
G01X5.6901Y-0.9972
M16
G05
T10
G00X1.93Y-1.1925
M15
G01X1.93Y-1.2713
M16
G05
G00X2.1544Y-1.1138
M15
G01X2.0756Y-1.1138
M16
G05
G00X2.1544Y-1.35
M15
G01X2.0756Y-1.35
M16
G05
T0
M30
